<?xml version="1.0" encoding="utf-8"?>
<!-- Generator: Adobe Illustrator 21.1.0, SVG Export Plug-In . SVG Version: 6.00 Build 0)  -->
<svg version="1.1" id="Layer_1" xmlns="http://www.w3.org/2000/svg" xmlns:xlink="http://www.w3.org/1999/xlink" x="0px" y="0px"
	 viewBox="0 0 160 30" style="enable-background:new 0 0 160 30;" xml:space="preserve">
<style type="text/css">
	.st0{fill:#FFFFFF;}
	.st1{fill:#F03756;stroke:#FFFFFF;stroke-width:3;}
</style>
<ellipse class="st0" cx="15" cy="15" rx="14" ry="14.5"/>
<path class="st1" d="M35.5,15c0,5.5-4.6,10-10.5,10s-10.5-4.5-10.5-10c0-5.5,4.6-10,10.5-10S35.5,9.5,35.5,15z"/>
<path class="st0" d="M61.4,8.5c1.4,0,2.5,0.4,3.3,1.1c0.8,0.7,1.2,1.7,1.2,3c0,0.7-0.2,1.4-0.5,2.1c-0.3,0.6-0.8,1.2-1.4,1.5
	c-0.6,0.4-1.5,0.6-2.5,0.6h-1.9v4.8h-1.7v-13H61.4z M61.5,15c0.6,0,1.1-0.1,1.5-0.4c0.4-0.3,0.7-0.6,0.8-1c0.2-0.4,0.3-0.8,0.3-1.1
	c0-0.6-0.2-1.2-0.6-1.7c-0.4-0.5-1-0.7-1.9-0.7h-2V15H61.5z M75.7,21.5l-3.1-4.8c-0.1,0-0.2,0-0.4,0h-1.9v4.8h-1.7v-13h3.5
	c0.9,0,1.7,0.2,2.4,0.5c0.7,0.3,1.2,0.8,1.6,1.4c0.4,0.6,0.6,1.3,0.6,2.2c0,0.8-0.2,1.5-0.5,2.2c-0.3,0.7-0.9,1.2-1.6,1.5l3.3,5.2
	H75.7z M72.2,15c0.9,0,1.6-0.2,2-0.7c0.4-0.5,0.6-1.1,0.6-1.7c0-0.4-0.1-0.8-0.3-1.1c-0.2-0.4-0.4-0.7-0.8-0.9
	c-0.4-0.3-0.8-0.4-1.4-0.4h-2V15H72.2z M79.4,15c0-1.2,0.3-2.3,0.9-3.3s1.4-1.8,2.4-2.4c1-0.6,2.1-0.9,3.3-0.9
	c1.2,0,2.3,0.3,3.3,0.9c1,0.6,1.8,1.4,2.4,2.4c0.6,1,0.9,2.1,0.9,3.3c0,1.2-0.3,2.3-0.9,3.3c-0.6,1-1.4,1.8-2.4,2.4
	c-1,0.6-2.1,0.9-3.3,0.9c-1.2,0-2.3-0.3-3.3-0.9c-1-0.6-1.8-1.4-2.4-2.4C79.7,17.3,79.4,16.2,79.4,15z M81.2,15
	c0,0.9,0.2,1.7,0.6,2.5s1,1.4,1.8,1.8c0.8,0.4,1.6,0.7,2.5,0.7s1.7-0.2,2.4-0.6c0.7-0.4,1.3-1,1.7-1.8c0.4-0.8,0.6-1.6,0.6-2.5
	c0-0.9-0.2-1.7-0.6-2.5s-1-1.4-1.8-1.8C87.7,10.2,86.9,10,86,10s-1.7,0.2-2.4,0.7c-0.7,0.4-1.3,1.1-1.8,1.8
	C81.4,13.3,81.2,14.1,81.2,15z M108.6,8.1v13.4h-1.7v-8.4l-4.8,6.8h0l-4.7-6.6v8.2h-1.7V8.1h0l6.4,9.1L108.6,8.1L108.6,8.1z
	 M111.5,15c0-1.2,0.3-2.3,0.9-3.3c0.6-1,1.4-1.8,2.4-2.4c1-0.6,2.1-0.9,3.3-0.9c1.2,0,2.3,0.3,3.3,0.9c1,0.6,1.8,1.4,2.4,2.4
	c0.6,1,0.9,2.1,0.9,3.3c0,1.2-0.3,2.3-0.9,3.3c-0.6,1-1.4,1.8-2.4,2.4c-1,0.6-2.1,0.9-3.3,0.9c-1.2,0-2.3-0.3-3.3-0.9
	c-1-0.6-1.8-1.4-2.4-2.4C111.8,17.3,111.5,16.2,111.5,15z M113.3,15c0,0.9,0.2,1.7,0.6,2.5s1,1.4,1.8,1.8c0.8,0.4,1.6,0.7,2.5,0.7
	s1.7-0.2,2.4-0.6c0.7-0.4,1.3-1,1.7-1.8c0.4-0.8,0.6-1.6,0.6-2.5c0-0.9-0.2-1.7-0.6-2.5s-1-1.4-1.8-1.8c-0.7-0.4-1.6-0.7-2.4-0.7
	s-1.7,0.2-2.4,0.7c-0.7,0.4-1.3,1.1-1.8,1.8C113.5,13.3,113.3,14.1,113.3,15z M134.5,10.8c-0.5-0.3-1-0.5-1.5-0.6s-1-0.2-1.5-0.2
	c-0.7,0-1.3,0.2-1.7,0.5c-0.4,0.3-0.6,0.7-0.6,1.3c0,0.5,0.2,1,0.7,1.3c0.5,0.3,1.2,0.7,2.1,1c0.7,0.2,1.2,0.5,1.7,0.8
	c0.5,0.3,0.9,0.7,1.2,1.2c0.3,0.5,0.5,1.1,0.5,1.9c0,0.7-0.2,1.3-0.5,1.9c-0.3,0.6-0.8,1-1.5,1.3c-0.6,0.3-1.4,0.5-2.2,0.5
	c-0.8,0-1.6-0.1-2.3-0.4c-0.7-0.3-1.4-0.6-2-1l0.8-1.4c0.4,0.3,1,0.6,1.6,0.9c0.6,0.2,1.2,0.3,1.7,0.3c0.7,0,1.3-0.2,1.8-0.5
	c0.5-0.4,0.8-0.9,0.8-1.6c0-0.6-0.2-1.1-0.7-1.4c-0.4-0.4-1-0.7-1.8-1c-0.7-0.3-1.3-0.5-1.8-0.8c-0.5-0.3-0.9-0.6-1.2-1.1
	c-0.3-0.5-0.5-1.1-0.5-1.7c0-1,0.4-1.8,1.1-2.5c0.7-0.6,1.6-1,2.8-1c1.4,0,2.7,0.3,3.9,1L134.5,10.8z M148.3,8.5l-4.9,8.7v4.3h-1.7
	v-4.3l-4.8-8.7h2.2l3.6,6.7l3.6-6.7H148.3z M156.9,10.8c-0.5-0.3-1-0.5-1.5-0.6s-1-0.2-1.5-0.2c-0.7,0-1.3,0.2-1.7,0.5
	c-0.4,0.3-0.6,0.7-0.6,1.3c0,0.5,0.2,1,0.7,1.3c0.5,0.3,1.2,0.7,2.1,1c0.7,0.2,1.2,0.5,1.7,0.8c0.5,0.3,0.9,0.7,1.2,1.2
	c0.3,0.5,0.5,1.1,0.5,1.9c0,0.7-0.2,1.3-0.5,1.9c-0.3,0.6-0.8,1-1.5,1.3c-0.6,0.3-1.4,0.5-2.2,0.5c-0.8,0-1.6-0.1-2.3-0.4
	c-0.7-0.3-1.4-0.6-2-1l0.8-1.4c0.4,0.3,1,0.6,1.6,0.9c0.6,0.2,1.2,0.3,1.7,0.3c0.7,0,1.3-0.2,1.8-0.5c0.5-0.4,0.8-0.9,0.8-1.6
	c0-0.6-0.2-1.1-0.7-1.4c-0.4-0.4-1-0.7-1.8-1c-0.7-0.3-1.3-0.5-1.8-0.8c-0.5-0.3-0.9-0.6-1.2-1.1c-0.3-0.5-0.5-1.1-0.5-1.7
	c0-1,0.4-1.8,1.1-2.5c0.7-0.6,1.7-1,2.8-1c1.4,0,2.7,0.3,3.9,1L156.9,10.8z"/>
</svg>
